G04 #@! TF.FileFunction,Copper,L1,Top,Signal*
%FSLAX46Y46*%
G04 Gerber Fmt 4.6, Leading zero omitted, Abs format (unit mm)*
G04 Created by KiCad (PCBNEW 4.0.1-3.201512221402+6198~38~ubuntu15.04.1-stable) date Sun 14 Feb 2016 01:03:01 PM PST*
%MOMM*%
G01*
G04 APERTURE LIST*
%ADD10C,0.100000*%
%ADD11C,0.200000*%
%ADD12C,1.471200*%
%ADD13C,3.300000*%
%ADD14C,0.600000*%
%ADD15C,0.250000*%
G04 APERTURE END LIST*
D10*
D11*
X155032619Y-111357143D02*
X154985000Y-111404762D01*
X154842143Y-111452381D01*
X154746905Y-111452381D01*
X154604047Y-111404762D01*
X154508809Y-111309524D01*
X154461190Y-111214286D01*
X154413571Y-111023810D01*
X154413571Y-110880952D01*
X154461190Y-110690476D01*
X154508809Y-110595238D01*
X154604047Y-110500000D01*
X154746905Y-110452381D01*
X154842143Y-110452381D01*
X154985000Y-110500000D01*
X155032619Y-110547619D01*
X155604047Y-111452381D02*
X155508809Y-111404762D01*
X155461190Y-111357143D01*
X155413571Y-111261905D01*
X155413571Y-110976190D01*
X155461190Y-110880952D01*
X155508809Y-110833333D01*
X155604047Y-110785714D01*
X155746905Y-110785714D01*
X155842143Y-110833333D01*
X155889762Y-110880952D01*
X155937381Y-110976190D01*
X155937381Y-111261905D01*
X155889762Y-111357143D01*
X155842143Y-111404762D01*
X155746905Y-111452381D01*
X155604047Y-111452381D01*
X156365952Y-110785714D02*
X156365952Y-111452381D01*
X156365952Y-110880952D02*
X156413571Y-110833333D01*
X156508809Y-110785714D01*
X156651667Y-110785714D01*
X156746905Y-110833333D01*
X156794524Y-110928571D01*
X156794524Y-111452381D01*
X157270714Y-110785714D02*
X157270714Y-111452381D01*
X157270714Y-110880952D02*
X157318333Y-110833333D01*
X157413571Y-110785714D01*
X157556429Y-110785714D01*
X157651667Y-110833333D01*
X157699286Y-110928571D01*
X157699286Y-111452381D01*
X158556429Y-111404762D02*
X158461191Y-111452381D01*
X158270714Y-111452381D01*
X158175476Y-111404762D01*
X158127857Y-111309524D01*
X158127857Y-110928571D01*
X158175476Y-110833333D01*
X158270714Y-110785714D01*
X158461191Y-110785714D01*
X158556429Y-110833333D01*
X158604048Y-110928571D01*
X158604048Y-111023810D01*
X158127857Y-111119048D01*
X159461191Y-111404762D02*
X159365953Y-111452381D01*
X159175476Y-111452381D01*
X159080238Y-111404762D01*
X159032619Y-111357143D01*
X158985000Y-111261905D01*
X158985000Y-110976190D01*
X159032619Y-110880952D01*
X159080238Y-110833333D01*
X159175476Y-110785714D01*
X159365953Y-110785714D01*
X159461191Y-110833333D01*
X159746905Y-110785714D02*
X160127857Y-110785714D01*
X159889762Y-110452381D02*
X159889762Y-111309524D01*
X159937381Y-111404762D01*
X160032619Y-111452381D01*
X160127857Y-111452381D01*
X160604048Y-111452381D02*
X160508810Y-111404762D01*
X160461191Y-111357143D01*
X160413572Y-111261905D01*
X160413572Y-110976190D01*
X160461191Y-110880952D01*
X160508810Y-110833333D01*
X160604048Y-110785714D01*
X160746906Y-110785714D01*
X160842144Y-110833333D01*
X160889763Y-110880952D01*
X160937382Y-110976190D01*
X160937382Y-111261905D01*
X160889763Y-111357143D01*
X160842144Y-111404762D01*
X160746906Y-111452381D01*
X160604048Y-111452381D01*
X161365953Y-111452381D02*
X161365953Y-110785714D01*
X161365953Y-110976190D02*
X161413572Y-110880952D01*
X161461191Y-110833333D01*
X161556429Y-110785714D01*
X161651668Y-110785714D01*
X132042619Y-111357143D02*
X131995000Y-111404762D01*
X131852143Y-111452381D01*
X131756905Y-111452381D01*
X131614047Y-111404762D01*
X131518809Y-111309524D01*
X131471190Y-111214286D01*
X131423571Y-111023810D01*
X131423571Y-110880952D01*
X131471190Y-110690476D01*
X131518809Y-110595238D01*
X131614047Y-110500000D01*
X131756905Y-110452381D01*
X131852143Y-110452381D01*
X131995000Y-110500000D01*
X132042619Y-110547619D01*
X132614047Y-111452381D02*
X132518809Y-111404762D01*
X132471190Y-111357143D01*
X132423571Y-111261905D01*
X132423571Y-110976190D01*
X132471190Y-110880952D01*
X132518809Y-110833333D01*
X132614047Y-110785714D01*
X132756905Y-110785714D01*
X132852143Y-110833333D01*
X132899762Y-110880952D01*
X132947381Y-110976190D01*
X132947381Y-111261905D01*
X132899762Y-111357143D01*
X132852143Y-111404762D01*
X132756905Y-111452381D01*
X132614047Y-111452381D01*
X133375952Y-110785714D02*
X133375952Y-111452381D01*
X133375952Y-110880952D02*
X133423571Y-110833333D01*
X133518809Y-110785714D01*
X133661667Y-110785714D01*
X133756905Y-110833333D01*
X133804524Y-110928571D01*
X133804524Y-111452381D01*
X134280714Y-110785714D02*
X134280714Y-111452381D01*
X134280714Y-110880952D02*
X134328333Y-110833333D01*
X134423571Y-110785714D01*
X134566429Y-110785714D01*
X134661667Y-110833333D01*
X134709286Y-110928571D01*
X134709286Y-111452381D01*
X135566429Y-111404762D02*
X135471191Y-111452381D01*
X135280714Y-111452381D01*
X135185476Y-111404762D01*
X135137857Y-111309524D01*
X135137857Y-110928571D01*
X135185476Y-110833333D01*
X135280714Y-110785714D01*
X135471191Y-110785714D01*
X135566429Y-110833333D01*
X135614048Y-110928571D01*
X135614048Y-111023810D01*
X135137857Y-111119048D01*
X136471191Y-111404762D02*
X136375953Y-111452381D01*
X136185476Y-111452381D01*
X136090238Y-111404762D01*
X136042619Y-111357143D01*
X135995000Y-111261905D01*
X135995000Y-110976190D01*
X136042619Y-110880952D01*
X136090238Y-110833333D01*
X136185476Y-110785714D01*
X136375953Y-110785714D01*
X136471191Y-110833333D01*
X136756905Y-110785714D02*
X137137857Y-110785714D01*
X136899762Y-110452381D02*
X136899762Y-111309524D01*
X136947381Y-111404762D01*
X137042619Y-111452381D01*
X137137857Y-111452381D01*
X137614048Y-111452381D02*
X137518810Y-111404762D01*
X137471191Y-111357143D01*
X137423572Y-111261905D01*
X137423572Y-110976190D01*
X137471191Y-110880952D01*
X137518810Y-110833333D01*
X137614048Y-110785714D01*
X137756906Y-110785714D01*
X137852144Y-110833333D01*
X137899763Y-110880952D01*
X137947382Y-110976190D01*
X137947382Y-111261905D01*
X137899763Y-111357143D01*
X137852144Y-111404762D01*
X137756906Y-111452381D01*
X137614048Y-111452381D01*
X138375953Y-111452381D02*
X138375953Y-110785714D01*
X138375953Y-110976190D02*
X138423572Y-110880952D01*
X138471191Y-110833333D01*
X138566429Y-110785714D01*
X138661668Y-110785714D01*
X139466190Y-92482381D02*
X140037619Y-92482381D01*
X139751904Y-93482381D02*
X139751904Y-92482381D01*
X140799524Y-93482381D02*
X140799524Y-92958571D01*
X140751905Y-92863333D01*
X140656667Y-92815714D01*
X140466190Y-92815714D01*
X140370952Y-92863333D01*
X140799524Y-93434762D02*
X140704286Y-93482381D01*
X140466190Y-93482381D01*
X140370952Y-93434762D01*
X140323333Y-93339524D01*
X140323333Y-93244286D01*
X140370952Y-93149048D01*
X140466190Y-93101429D01*
X140704286Y-93101429D01*
X140799524Y-93053810D01*
X141704286Y-92815714D02*
X141704286Y-93625238D01*
X141656667Y-93720476D01*
X141609048Y-93768095D01*
X141513809Y-93815714D01*
X141370952Y-93815714D01*
X141275714Y-93768095D01*
X141704286Y-93434762D02*
X141609048Y-93482381D01*
X141418571Y-93482381D01*
X141323333Y-93434762D01*
X141275714Y-93387143D01*
X141228095Y-93291905D01*
X141228095Y-93006190D01*
X141275714Y-92910952D01*
X141323333Y-92863333D01*
X141418571Y-92815714D01*
X141609048Y-92815714D01*
X141704286Y-92863333D01*
X142180476Y-93101429D02*
X142942381Y-93101429D01*
X143990000Y-93387143D02*
X143942381Y-93434762D01*
X143799524Y-93482381D01*
X143704286Y-93482381D01*
X143561428Y-93434762D01*
X143466190Y-93339524D01*
X143418571Y-93244286D01*
X143370952Y-93053810D01*
X143370952Y-92910952D01*
X143418571Y-92720476D01*
X143466190Y-92625238D01*
X143561428Y-92530000D01*
X143704286Y-92482381D01*
X143799524Y-92482381D01*
X143942381Y-92530000D01*
X143990000Y-92577619D01*
X144561428Y-93482381D02*
X144466190Y-93434762D01*
X144418571Y-93387143D01*
X144370952Y-93291905D01*
X144370952Y-93006190D01*
X144418571Y-92910952D01*
X144466190Y-92863333D01*
X144561428Y-92815714D01*
X144704286Y-92815714D01*
X144799524Y-92863333D01*
X144847143Y-92910952D01*
X144894762Y-93006190D01*
X144894762Y-93291905D01*
X144847143Y-93387143D01*
X144799524Y-93434762D01*
X144704286Y-93482381D01*
X144561428Y-93482381D01*
X145323333Y-92815714D02*
X145323333Y-93482381D01*
X145323333Y-92910952D02*
X145370952Y-92863333D01*
X145466190Y-92815714D01*
X145609048Y-92815714D01*
X145704286Y-92863333D01*
X145751905Y-92958571D01*
X145751905Y-93482381D01*
X146228095Y-92815714D02*
X146228095Y-93482381D01*
X146228095Y-92910952D02*
X146275714Y-92863333D01*
X146370952Y-92815714D01*
X146513810Y-92815714D01*
X146609048Y-92863333D01*
X146656667Y-92958571D01*
X146656667Y-93482381D01*
X147513810Y-93434762D02*
X147418572Y-93482381D01*
X147228095Y-93482381D01*
X147132857Y-93434762D01*
X147085238Y-93339524D01*
X147085238Y-92958571D01*
X147132857Y-92863333D01*
X147228095Y-92815714D01*
X147418572Y-92815714D01*
X147513810Y-92863333D01*
X147561429Y-92958571D01*
X147561429Y-93053810D01*
X147085238Y-93149048D01*
X148418572Y-93434762D02*
X148323334Y-93482381D01*
X148132857Y-93482381D01*
X148037619Y-93434762D01*
X147990000Y-93387143D01*
X147942381Y-93291905D01*
X147942381Y-93006190D01*
X147990000Y-92910952D01*
X148037619Y-92863333D01*
X148132857Y-92815714D01*
X148323334Y-92815714D01*
X148418572Y-92863333D01*
X148704286Y-92815714D02*
X149085238Y-92815714D01*
X148847143Y-92482381D02*
X148847143Y-93339524D01*
X148894762Y-93434762D01*
X148990000Y-93482381D01*
X149085238Y-93482381D01*
X150751906Y-93482381D02*
X150418572Y-93006190D01*
X150180477Y-93482381D02*
X150180477Y-92482381D01*
X150561430Y-92482381D01*
X150656668Y-92530000D01*
X150704287Y-92577619D01*
X150751906Y-92672857D01*
X150751906Y-92815714D01*
X150704287Y-92910952D01*
X150656668Y-92958571D01*
X150561430Y-93006190D01*
X150180477Y-93006190D01*
X151466192Y-92482381D02*
X151466192Y-93196667D01*
X151418572Y-93339524D01*
X151323334Y-93434762D01*
X151180477Y-93482381D01*
X151085239Y-93482381D01*
X152466192Y-93482381D02*
X151894763Y-93482381D01*
X152180477Y-93482381D02*
X152180477Y-92482381D01*
X152085239Y-92625238D01*
X151990001Y-92720476D01*
X151894763Y-92768095D01*
X152847144Y-92577619D02*
X152894763Y-92530000D01*
X152990001Y-92482381D01*
X153228097Y-92482381D01*
X153323335Y-92530000D01*
X153370954Y-92577619D01*
X153418573Y-92672857D01*
X153418573Y-92768095D01*
X153370954Y-92910952D01*
X152799525Y-93482381D01*
X153418573Y-93482381D01*
X131518810Y-109254762D02*
X131661667Y-109302381D01*
X131899763Y-109302381D01*
X131995001Y-109254762D01*
X132042620Y-109207143D01*
X132090239Y-109111905D01*
X132090239Y-109016667D01*
X132042620Y-108921429D01*
X131995001Y-108873810D01*
X131899763Y-108826190D01*
X131709286Y-108778571D01*
X131614048Y-108730952D01*
X131566429Y-108683333D01*
X131518810Y-108588095D01*
X131518810Y-108492857D01*
X131566429Y-108397619D01*
X131614048Y-108350000D01*
X131709286Y-108302381D01*
X131947382Y-108302381D01*
X132090239Y-108350000D01*
X132518810Y-109302381D02*
X132518810Y-108635714D01*
X132518810Y-108302381D02*
X132471191Y-108350000D01*
X132518810Y-108397619D01*
X132566429Y-108350000D01*
X132518810Y-108302381D01*
X132518810Y-108397619D01*
X132995000Y-109302381D02*
X132995000Y-108635714D01*
X132995000Y-108730952D02*
X133042619Y-108683333D01*
X133137857Y-108635714D01*
X133280715Y-108635714D01*
X133375953Y-108683333D01*
X133423572Y-108778571D01*
X133423572Y-109302381D01*
X133423572Y-108778571D02*
X133471191Y-108683333D01*
X133566429Y-108635714D01*
X133709286Y-108635714D01*
X133804524Y-108683333D01*
X133852143Y-108778571D01*
X133852143Y-109302381D01*
X134328333Y-108635714D02*
X134328333Y-109635714D01*
X134328333Y-108683333D02*
X134423571Y-108635714D01*
X134614048Y-108635714D01*
X134709286Y-108683333D01*
X134756905Y-108730952D01*
X134804524Y-108826190D01*
X134804524Y-109111905D01*
X134756905Y-109207143D01*
X134709286Y-109254762D01*
X134614048Y-109302381D01*
X134423571Y-109302381D01*
X134328333Y-109254762D01*
X135375952Y-109302381D02*
X135280714Y-109254762D01*
X135233095Y-109159524D01*
X135233095Y-108302381D01*
X135756905Y-109302381D02*
X135756905Y-108635714D01*
X135756905Y-108302381D02*
X135709286Y-108350000D01*
X135756905Y-108397619D01*
X135804524Y-108350000D01*
X135756905Y-108302381D01*
X135756905Y-108397619D01*
X136661667Y-109254762D02*
X136566429Y-109302381D01*
X136375952Y-109302381D01*
X136280714Y-109254762D01*
X136233095Y-109207143D01*
X136185476Y-109111905D01*
X136185476Y-108826190D01*
X136233095Y-108730952D01*
X136280714Y-108683333D01*
X136375952Y-108635714D01*
X136566429Y-108635714D01*
X136661667Y-108683333D01*
X137090238Y-109302381D02*
X137090238Y-108635714D01*
X137090238Y-108302381D02*
X137042619Y-108350000D01*
X137090238Y-108397619D01*
X137137857Y-108350000D01*
X137090238Y-108302381D01*
X137090238Y-108397619D01*
X137423571Y-108635714D02*
X137804523Y-108635714D01*
X137566428Y-108302381D02*
X137566428Y-109159524D01*
X137614047Y-109254762D01*
X137709285Y-109302381D01*
X137804523Y-109302381D01*
X138042619Y-108635714D02*
X138280714Y-109302381D01*
X138518810Y-108635714D02*
X138280714Y-109302381D01*
X138185476Y-109540476D01*
X138137857Y-109588095D01*
X138042619Y-109635714D01*
X155937381Y-109305381D02*
X155937381Y-108305381D01*
X156175476Y-108305381D01*
X156318334Y-108353000D01*
X156413572Y-108448238D01*
X156461191Y-108543476D01*
X156508810Y-108733952D01*
X156508810Y-108876810D01*
X156461191Y-109067286D01*
X156413572Y-109162524D01*
X156318334Y-109257762D01*
X156175476Y-109305381D01*
X155937381Y-109305381D01*
X157318334Y-109257762D02*
X157223096Y-109305381D01*
X157032619Y-109305381D01*
X156937381Y-109257762D01*
X156889762Y-109162524D01*
X156889762Y-108781571D01*
X156937381Y-108686333D01*
X157032619Y-108638714D01*
X157223096Y-108638714D01*
X157318334Y-108686333D01*
X157365953Y-108781571D01*
X157365953Y-108876810D01*
X156889762Y-108972048D01*
X157794524Y-109305381D02*
X157794524Y-108305381D01*
X157794524Y-108686333D02*
X157889762Y-108638714D01*
X158080239Y-108638714D01*
X158175477Y-108686333D01*
X158223096Y-108733952D01*
X158270715Y-108829190D01*
X158270715Y-109114905D01*
X158223096Y-109210143D01*
X158175477Y-109257762D01*
X158080239Y-109305381D01*
X157889762Y-109305381D01*
X157794524Y-109257762D01*
X159127858Y-108638714D02*
X159127858Y-109305381D01*
X158699286Y-108638714D02*
X158699286Y-109162524D01*
X158746905Y-109257762D01*
X158842143Y-109305381D01*
X158985001Y-109305381D01*
X159080239Y-109257762D01*
X159127858Y-109210143D01*
X160032620Y-108638714D02*
X160032620Y-109448238D01*
X159985001Y-109543476D01*
X159937382Y-109591095D01*
X159842143Y-109638714D01*
X159699286Y-109638714D01*
X159604048Y-109591095D01*
X160032620Y-109257762D02*
X159937382Y-109305381D01*
X159746905Y-109305381D01*
X159651667Y-109257762D01*
X159604048Y-109210143D01*
X159556429Y-109114905D01*
X159556429Y-108829190D01*
X159604048Y-108733952D01*
X159651667Y-108686333D01*
X159746905Y-108638714D01*
X159937382Y-108638714D01*
X160032620Y-108686333D01*
D12*
X149657500Y-97800000D03*
D13*
X151567500Y-104150000D03*
X141407500Y-104150000D03*
D12*
X148387500Y-95260000D03*
X145847500Y-95260000D03*
X143307500Y-95260000D03*
X147117500Y-97800000D03*
X144577500Y-97800000D03*
D14*
X131250000Y-110000000D03*
X146487500Y-110000000D03*
D15*
X146487500Y-110000000D02*
X131250000Y-110000000D01*
G36*
X142154712Y-94488276D02*
X141947136Y-94988173D01*
X141946664Y-95529453D01*
X142153367Y-96029711D01*
X142535776Y-96412788D01*
X143035673Y-96620364D01*
X143576953Y-96620836D01*
X144077211Y-96414133D01*
X144460288Y-96031724D01*
X144577532Y-95749370D01*
X144693367Y-96029711D01*
X145075776Y-96412788D01*
X145575673Y-96620364D01*
X146116953Y-96620836D01*
X146617211Y-96414133D01*
X146810426Y-96221254D01*
X147608680Y-96221254D01*
X147675173Y-96459902D01*
X148188578Y-96641161D01*
X148732268Y-96612150D01*
X149099827Y-96459902D01*
X149166320Y-96221254D01*
X148387500Y-95442434D01*
X147608680Y-96221254D01*
X146810426Y-96221254D01*
X147000288Y-96031724D01*
X147106375Y-95776238D01*
X147187598Y-95972327D01*
X147426246Y-96038820D01*
X148205066Y-95260000D01*
X148190924Y-95245858D01*
X148373358Y-95063424D01*
X148387500Y-95077566D01*
X148401642Y-95063424D01*
X148584076Y-95245858D01*
X148569934Y-95260000D01*
X149348754Y-96038820D01*
X149587402Y-95972327D01*
X149768661Y-95458922D01*
X149739650Y-94915232D01*
X149587402Y-94547673D01*
X149348756Y-94481180D01*
X149374936Y-94455000D01*
X153870000Y-94455000D01*
X153870000Y-105450000D01*
X153883450Y-105517618D01*
X153883450Y-105586563D01*
X153959570Y-105969245D01*
X153959570Y-105969246D01*
X153995647Y-106056343D01*
X154064090Y-106221581D01*
X154064091Y-106221582D01*
X154133193Y-106325000D01*
X153490000Y-106325000D01*
X153444568Y-106333549D01*
X153402841Y-106360399D01*
X153374848Y-106401368D01*
X153365000Y-106450000D01*
X153365000Y-111905000D01*
X148653492Y-111905000D01*
X148565226Y-111772901D01*
X148468662Y-111676338D01*
X148372099Y-111579774D01*
X148226109Y-111482226D01*
X148226107Y-111482225D01*
X148226106Y-111482224D01*
X148090973Y-111426250D01*
X147973774Y-111377705D01*
X147973772Y-111377705D01*
X147973770Y-111377704D01*
X147801562Y-111343450D01*
X147732618Y-111343450D01*
X147665000Y-111330000D01*
X145315000Y-111330000D01*
X145247382Y-111343450D01*
X145178438Y-111343450D01*
X145006230Y-111377704D01*
X145006228Y-111377705D01*
X145006226Y-111377705D01*
X144889027Y-111426250D01*
X144753894Y-111482224D01*
X144753893Y-111482225D01*
X144753891Y-111482226D01*
X144607901Y-111579774D01*
X144511338Y-111676338D01*
X144414774Y-111772901D01*
X144326508Y-111905000D01*
X139615000Y-111905000D01*
X139615000Y-106450000D01*
X139606451Y-106404568D01*
X139579601Y-106362841D01*
X139538632Y-106334848D01*
X139490000Y-106325000D01*
X138826807Y-106325000D01*
X138895909Y-106221582D01*
X138895910Y-106221581D01*
X138962383Y-106061100D01*
X139000430Y-105969247D01*
X139000430Y-105969245D01*
X139076550Y-105586563D01*
X139076550Y-105517618D01*
X139090000Y-105450000D01*
X139090000Y-104600540D01*
X139132106Y-104600540D01*
X139477724Y-105437000D01*
X140117133Y-106077527D01*
X140952989Y-106424604D01*
X141858040Y-106425394D01*
X142694500Y-106079776D01*
X143335027Y-105440367D01*
X143682104Y-104604511D01*
X143682107Y-104600540D01*
X149292106Y-104600540D01*
X149637724Y-105437000D01*
X150277133Y-106077527D01*
X151112989Y-106424604D01*
X152018040Y-106425394D01*
X152854500Y-106079776D01*
X153495027Y-105440367D01*
X153842104Y-104604511D01*
X153842894Y-103699460D01*
X153497276Y-102863000D01*
X152857867Y-102222473D01*
X152022011Y-101875396D01*
X151116960Y-101874606D01*
X150280500Y-102220224D01*
X149639973Y-102859633D01*
X149292896Y-103695489D01*
X149292106Y-104600540D01*
X143682107Y-104600540D01*
X143682894Y-103699460D01*
X143337276Y-102863000D01*
X142697867Y-102222473D01*
X141862011Y-101875396D01*
X140956960Y-101874606D01*
X140120500Y-102220224D01*
X139479973Y-102859633D01*
X139132896Y-103695489D01*
X139132106Y-104600540D01*
X139090000Y-104600540D01*
X139090000Y-98069453D01*
X143216664Y-98069453D01*
X143423367Y-98569711D01*
X143805776Y-98952788D01*
X144305673Y-99160364D01*
X144846953Y-99160836D01*
X145347211Y-98954133D01*
X145730288Y-98571724D01*
X145847532Y-98289370D01*
X145963367Y-98569711D01*
X146345776Y-98952788D01*
X146845673Y-99160364D01*
X147386953Y-99160836D01*
X147887211Y-98954133D01*
X148270288Y-98571724D01*
X148387532Y-98289370D01*
X148503367Y-98569711D01*
X148885776Y-98952788D01*
X149385673Y-99160364D01*
X149926953Y-99160836D01*
X150427211Y-98954133D01*
X150810288Y-98571724D01*
X151017864Y-98071827D01*
X151018336Y-97530547D01*
X150811633Y-97030289D01*
X150429224Y-96647212D01*
X149929327Y-96439636D01*
X149388047Y-96439164D01*
X148887789Y-96645867D01*
X148504712Y-97028276D01*
X148387468Y-97310630D01*
X148271633Y-97030289D01*
X147889224Y-96647212D01*
X147389327Y-96439636D01*
X146848047Y-96439164D01*
X146347789Y-96645867D01*
X145964712Y-97028276D01*
X145847468Y-97310630D01*
X145731633Y-97030289D01*
X145349224Y-96647212D01*
X144849327Y-96439636D01*
X144308047Y-96439164D01*
X143807789Y-96645867D01*
X143424712Y-97028276D01*
X143217136Y-97528173D01*
X143216664Y-98069453D01*
X139090000Y-98069453D01*
X139090000Y-94455000D01*
X142188046Y-94455000D01*
X142154712Y-94488276D01*
X142154712Y-94488276D01*
G37*
X142154712Y-94488276D02*
X141947136Y-94988173D01*
X141946664Y-95529453D01*
X142153367Y-96029711D01*
X142535776Y-96412788D01*
X143035673Y-96620364D01*
X143576953Y-96620836D01*
X144077211Y-96414133D01*
X144460288Y-96031724D01*
X144577532Y-95749370D01*
X144693367Y-96029711D01*
X145075776Y-96412788D01*
X145575673Y-96620364D01*
X146116953Y-96620836D01*
X146617211Y-96414133D01*
X146810426Y-96221254D01*
X147608680Y-96221254D01*
X147675173Y-96459902D01*
X148188578Y-96641161D01*
X148732268Y-96612150D01*
X149099827Y-96459902D01*
X149166320Y-96221254D01*
X148387500Y-95442434D01*
X147608680Y-96221254D01*
X146810426Y-96221254D01*
X147000288Y-96031724D01*
X147106375Y-95776238D01*
X147187598Y-95972327D01*
X147426246Y-96038820D01*
X148205066Y-95260000D01*
X148190924Y-95245858D01*
X148373358Y-95063424D01*
X148387500Y-95077566D01*
X148401642Y-95063424D01*
X148584076Y-95245858D01*
X148569934Y-95260000D01*
X149348754Y-96038820D01*
X149587402Y-95972327D01*
X149768661Y-95458922D01*
X149739650Y-94915232D01*
X149587402Y-94547673D01*
X149348756Y-94481180D01*
X149374936Y-94455000D01*
X153870000Y-94455000D01*
X153870000Y-105450000D01*
X153883450Y-105517618D01*
X153883450Y-105586563D01*
X153959570Y-105969245D01*
X153959570Y-105969246D01*
X153995647Y-106056343D01*
X154064090Y-106221581D01*
X154064091Y-106221582D01*
X154133193Y-106325000D01*
X153490000Y-106325000D01*
X153444568Y-106333549D01*
X153402841Y-106360399D01*
X153374848Y-106401368D01*
X153365000Y-106450000D01*
X153365000Y-111905000D01*
X148653492Y-111905000D01*
X148565226Y-111772901D01*
X148468662Y-111676338D01*
X148372099Y-111579774D01*
X148226109Y-111482226D01*
X148226107Y-111482225D01*
X148226106Y-111482224D01*
X148090973Y-111426250D01*
X147973774Y-111377705D01*
X147973772Y-111377705D01*
X147973770Y-111377704D01*
X147801562Y-111343450D01*
X147732618Y-111343450D01*
X147665000Y-111330000D01*
X145315000Y-111330000D01*
X145247382Y-111343450D01*
X145178438Y-111343450D01*
X145006230Y-111377704D01*
X145006228Y-111377705D01*
X145006226Y-111377705D01*
X144889027Y-111426250D01*
X144753894Y-111482224D01*
X144753893Y-111482225D01*
X144753891Y-111482226D01*
X144607901Y-111579774D01*
X144511338Y-111676338D01*
X144414774Y-111772901D01*
X144326508Y-111905000D01*
X139615000Y-111905000D01*
X139615000Y-106450000D01*
X139606451Y-106404568D01*
X139579601Y-106362841D01*
X139538632Y-106334848D01*
X139490000Y-106325000D01*
X138826807Y-106325000D01*
X138895909Y-106221582D01*
X138895910Y-106221581D01*
X138962383Y-106061100D01*
X139000430Y-105969247D01*
X139000430Y-105969245D01*
X139076550Y-105586563D01*
X139076550Y-105517618D01*
X139090000Y-105450000D01*
X139090000Y-104600540D01*
X139132106Y-104600540D01*
X139477724Y-105437000D01*
X140117133Y-106077527D01*
X140952989Y-106424604D01*
X141858040Y-106425394D01*
X142694500Y-106079776D01*
X143335027Y-105440367D01*
X143682104Y-104604511D01*
X143682107Y-104600540D01*
X149292106Y-104600540D01*
X149637724Y-105437000D01*
X150277133Y-106077527D01*
X151112989Y-106424604D01*
X152018040Y-106425394D01*
X152854500Y-106079776D01*
X153495027Y-105440367D01*
X153842104Y-104604511D01*
X153842894Y-103699460D01*
X153497276Y-102863000D01*
X152857867Y-102222473D01*
X152022011Y-101875396D01*
X151116960Y-101874606D01*
X150280500Y-102220224D01*
X149639973Y-102859633D01*
X149292896Y-103695489D01*
X149292106Y-104600540D01*
X143682107Y-104600540D01*
X143682894Y-103699460D01*
X143337276Y-102863000D01*
X142697867Y-102222473D01*
X141862011Y-101875396D01*
X140956960Y-101874606D01*
X140120500Y-102220224D01*
X139479973Y-102859633D01*
X139132896Y-103695489D01*
X139132106Y-104600540D01*
X139090000Y-104600540D01*
X139090000Y-98069453D01*
X143216664Y-98069453D01*
X143423367Y-98569711D01*
X143805776Y-98952788D01*
X144305673Y-99160364D01*
X144846953Y-99160836D01*
X145347211Y-98954133D01*
X145730288Y-98571724D01*
X145847532Y-98289370D01*
X145963367Y-98569711D01*
X146345776Y-98952788D01*
X146845673Y-99160364D01*
X147386953Y-99160836D01*
X147887211Y-98954133D01*
X148270288Y-98571724D01*
X148387532Y-98289370D01*
X148503367Y-98569711D01*
X148885776Y-98952788D01*
X149385673Y-99160364D01*
X149926953Y-99160836D01*
X150427211Y-98954133D01*
X150810288Y-98571724D01*
X151017864Y-98071827D01*
X151018336Y-97530547D01*
X150811633Y-97030289D01*
X150429224Y-96647212D01*
X149929327Y-96439636D01*
X149388047Y-96439164D01*
X148887789Y-96645867D01*
X148504712Y-97028276D01*
X148387468Y-97310630D01*
X148271633Y-97030289D01*
X147889224Y-96647212D01*
X147389327Y-96439636D01*
X146848047Y-96439164D01*
X146347789Y-96645867D01*
X145964712Y-97028276D01*
X145847468Y-97310630D01*
X145731633Y-97030289D01*
X145349224Y-96647212D01*
X144849327Y-96439636D01*
X144308047Y-96439164D01*
X143807789Y-96645867D01*
X143424712Y-97028276D01*
X143217136Y-97528173D01*
X143216664Y-98069453D01*
X139090000Y-98069453D01*
X139090000Y-94455000D01*
X142188046Y-94455000D01*
X142154712Y-94488276D01*
M02*
