G04 #@! TF.FileFunction,Legend,Bot*
%FSLAX46Y46*%
G04 Gerber Fmt 4.6, Leading zero omitted, Abs format (unit mm)*
G04 Created by KiCad (PCBNEW 4.0.1-3.201512221402+6198~38~ubuntu15.04.1-stable) date Sun 14 Feb 2016 01:03:01 PM PST*
%MOMM*%
G01*
G04 APERTURE LIST*
%ADD10C,0.100000*%
%ADD11C,0.550000*%
%ADD12C,0.187500*%
%ADD13C,0.287500*%
%ADD14C,0.150000*%
G04 APERTURE END LIST*
D10*
D11*
X146487500Y-110300000D02*
X145687500Y-109500000D01*
X147287500Y-109500000D02*
X146487500Y-110300000D01*
X145687500Y-109500000D02*
X147287500Y-109500000D01*
X146487500Y-108000000D02*
X146487500Y-110000000D01*
D12*
X153599286Y-92498572D02*
X152849286Y-92498572D01*
X152849286Y-92677144D01*
X152885000Y-92784287D01*
X152956429Y-92855715D01*
X153027857Y-92891430D01*
X153170714Y-92927144D01*
X153277857Y-92927144D01*
X153420714Y-92891430D01*
X153492143Y-92855715D01*
X153563571Y-92784287D01*
X153599286Y-92677144D01*
X153599286Y-92498572D01*
X153563571Y-93534287D02*
X153599286Y-93462858D01*
X153599286Y-93320001D01*
X153563571Y-93248572D01*
X153492143Y-93212858D01*
X153206429Y-93212858D01*
X153135000Y-93248572D01*
X153099286Y-93320001D01*
X153099286Y-93462858D01*
X153135000Y-93534287D01*
X153206429Y-93570001D01*
X153277857Y-93570001D01*
X153349286Y-93212858D01*
X153563571Y-93855715D02*
X153599286Y-93927144D01*
X153599286Y-94070001D01*
X153563571Y-94141429D01*
X153492143Y-94177144D01*
X153456429Y-94177144D01*
X153385000Y-94141429D01*
X153349286Y-94070001D01*
X153349286Y-93962858D01*
X153313571Y-93891429D01*
X153242143Y-93855715D01*
X153206429Y-93855715D01*
X153135000Y-93891429D01*
X153099286Y-93962858D01*
X153099286Y-94070001D01*
X153135000Y-94141429D01*
X153599286Y-94498572D02*
X153099286Y-94498572D01*
X152849286Y-94498572D02*
X152885000Y-94462858D01*
X152920714Y-94498572D01*
X152885000Y-94534287D01*
X152849286Y-94498572D01*
X152920714Y-94498572D01*
X153099286Y-95177144D02*
X153706429Y-95177144D01*
X153777857Y-95141430D01*
X153813571Y-95105715D01*
X153849286Y-95034287D01*
X153849286Y-94927144D01*
X153813571Y-94855715D01*
X153563571Y-95177144D02*
X153599286Y-95105715D01*
X153599286Y-94962858D01*
X153563571Y-94891430D01*
X153527857Y-94855715D01*
X153456429Y-94820001D01*
X153242143Y-94820001D01*
X153170714Y-94855715D01*
X153135000Y-94891430D01*
X153099286Y-94962858D01*
X153099286Y-95105715D01*
X153135000Y-95177144D01*
X153099286Y-95534286D02*
X153599286Y-95534286D01*
X153170714Y-95534286D02*
X153135000Y-95570001D01*
X153099286Y-95641429D01*
X153099286Y-95748572D01*
X153135000Y-95820001D01*
X153206429Y-95855715D01*
X153599286Y-95855715D01*
X153563571Y-96498572D02*
X153599286Y-96427143D01*
X153599286Y-96284286D01*
X153563571Y-96212857D01*
X153492143Y-96177143D01*
X153206429Y-96177143D01*
X153135000Y-96212857D01*
X153099286Y-96284286D01*
X153099286Y-96427143D01*
X153135000Y-96498572D01*
X153206429Y-96534286D01*
X153277857Y-96534286D01*
X153349286Y-96177143D01*
X153599286Y-97177143D02*
X152849286Y-97177143D01*
X153563571Y-97177143D02*
X153599286Y-97105714D01*
X153599286Y-96962857D01*
X153563571Y-96891429D01*
X153527857Y-96855714D01*
X153456429Y-96820000D01*
X153242143Y-96820000D01*
X153170714Y-96855714D01*
X153135000Y-96891429D01*
X153099286Y-96962857D01*
X153099286Y-97105714D01*
X153135000Y-97177143D01*
X153599286Y-98105714D02*
X152849286Y-98105714D01*
X153135000Y-98105714D02*
X153099286Y-98177143D01*
X153099286Y-98320000D01*
X153135000Y-98391429D01*
X153170714Y-98427143D01*
X153242143Y-98462857D01*
X153456429Y-98462857D01*
X153527857Y-98427143D01*
X153563571Y-98391429D01*
X153599286Y-98320000D01*
X153599286Y-98177143D01*
X153563571Y-98105714D01*
X153099286Y-98712857D02*
X153599286Y-98891428D01*
X153099286Y-99070000D02*
X153599286Y-98891428D01*
X153777857Y-98820000D01*
X153813571Y-98784285D01*
X153849286Y-98712857D01*
X152849286Y-100070001D02*
X152849286Y-100212858D01*
X152885000Y-100284286D01*
X152956429Y-100355715D01*
X153099286Y-100391429D01*
X153349286Y-100391429D01*
X153492143Y-100355715D01*
X153563571Y-100284286D01*
X153599286Y-100212858D01*
X153599286Y-100070001D01*
X153563571Y-99998572D01*
X153492143Y-99927143D01*
X153349286Y-99891429D01*
X153099286Y-99891429D01*
X152956429Y-99927143D01*
X152885000Y-99998572D01*
X152849286Y-100070001D01*
X153099286Y-100712857D02*
X153849286Y-100712857D01*
X153135000Y-100712857D02*
X153099286Y-100784286D01*
X153099286Y-100927143D01*
X153135000Y-100998572D01*
X153170714Y-101034286D01*
X153242143Y-101070000D01*
X153456429Y-101070000D01*
X153527857Y-101034286D01*
X153563571Y-100998572D01*
X153599286Y-100927143D01*
X153599286Y-100784286D01*
X153563571Y-100712857D01*
X153563571Y-101355714D02*
X153599286Y-101427143D01*
X153599286Y-101570000D01*
X153563571Y-101641428D01*
X153492143Y-101677143D01*
X153456429Y-101677143D01*
X153385000Y-101641428D01*
X153349286Y-101570000D01*
X153349286Y-101462857D01*
X153313571Y-101391428D01*
X153242143Y-101355714D01*
X153206429Y-101355714D01*
X153135000Y-101391428D01*
X153099286Y-101462857D01*
X153099286Y-101570000D01*
X153135000Y-101641428D01*
D13*
X140370238Y-92621668D02*
X139220238Y-92621668D01*
X140370238Y-93278810D01*
X139220238Y-93278810D01*
X139220238Y-94045477D02*
X139220238Y-94264525D01*
X139275000Y-94374049D01*
X139384524Y-94483572D01*
X139603571Y-94538334D01*
X139986905Y-94538334D01*
X140205952Y-94483572D01*
X140315476Y-94374049D01*
X140370238Y-94264525D01*
X140370238Y-94045477D01*
X140315476Y-93935953D01*
X140205952Y-93826430D01*
X139986905Y-93771668D01*
X139603571Y-93771668D01*
X139384524Y-93826430D01*
X139275000Y-93935953D01*
X139220238Y-94045477D01*
X140260714Y-95688334D02*
X140315476Y-95633572D01*
X140370238Y-95469287D01*
X140370238Y-95359763D01*
X140315476Y-95195477D01*
X140205952Y-95085953D01*
X140096429Y-95031192D01*
X139877381Y-94976430D01*
X139713095Y-94976430D01*
X139494048Y-95031192D01*
X139384524Y-95085953D01*
X139275000Y-95195477D01*
X139220238Y-95359763D01*
X139220238Y-95469287D01*
X139275000Y-95633572D01*
X139329762Y-95688334D01*
X139220238Y-96016906D02*
X139220238Y-96674049D01*
X140370238Y-96345477D02*
X139220238Y-96345477D01*
X140370238Y-97057382D02*
X139220238Y-97057382D01*
X139220238Y-97440715D02*
X140370238Y-97824048D01*
X139220238Y-98207381D01*
X139220238Y-98809762D02*
X139220238Y-99028810D01*
X139275000Y-99138334D01*
X139384524Y-99247857D01*
X139603571Y-99302619D01*
X139986905Y-99302619D01*
X140205952Y-99247857D01*
X140315476Y-99138334D01*
X140370238Y-99028810D01*
X140370238Y-98809762D01*
X140315476Y-98700238D01*
X140205952Y-98590715D01*
X139986905Y-98535953D01*
X139603571Y-98535953D01*
X139384524Y-98590715D01*
X139275000Y-98700238D01*
X139220238Y-98809762D01*
X140370238Y-100452619D02*
X139822619Y-100069286D01*
X140370238Y-99795477D02*
X139220238Y-99795477D01*
X139220238Y-100233572D01*
X139275000Y-100343096D01*
X139329762Y-100397857D01*
X139439286Y-100452619D01*
X139603571Y-100452619D01*
X139713095Y-100397857D01*
X139767857Y-100343096D01*
X139822619Y-100233572D01*
X139822619Y-99795477D01*
X139767857Y-100945477D02*
X139767857Y-101328810D01*
X140370238Y-101493096D02*
X140370238Y-100945477D01*
X139220238Y-100945477D01*
X139220238Y-101493096D01*
D10*
X148677500Y-111550000D02*
X161727500Y-111550000D01*
X148677500Y-108450000D02*
X148677500Y-111550000D01*
X161727500Y-108450000D02*
X148677500Y-108450000D01*
X161727500Y-111550000D02*
X161727500Y-108450000D01*
X131247500Y-111550000D02*
X144297500Y-111550000D01*
X131247500Y-108450000D02*
X131247500Y-111550000D01*
X144297500Y-108450000D02*
X131247500Y-108450000D01*
X144297500Y-111550000D02*
X144297500Y-108450000D01*
D14*
X148268040Y-102929640D02*
X148527120Y-103490980D01*
X148527120Y-103490980D02*
X147988640Y-104009140D01*
X147988640Y-104009140D02*
X147467940Y-103739900D01*
X147467940Y-103739900D02*
X147188540Y-103899920D01*
X145748360Y-103879600D02*
X145418160Y-103689100D01*
X145418160Y-103689100D02*
X144978740Y-104019300D01*
X144978740Y-104019300D02*
X144506300Y-103529080D01*
X144506300Y-103529080D02*
X144788240Y-103049020D01*
X144788240Y-103049020D02*
X144597740Y-102579120D01*
X144597740Y-102579120D02*
X143988140Y-102391160D01*
X143988140Y-102391160D02*
X143988140Y-101710440D01*
X143988140Y-101710440D02*
X144546940Y-101570740D01*
X144546940Y-101570740D02*
X144747600Y-100999240D01*
X144747600Y-100999240D02*
X144478360Y-100529340D01*
X144478360Y-100529340D02*
X144948260Y-100018800D01*
X144948260Y-100018800D02*
X145466420Y-100280420D01*
X145466420Y-100280420D02*
X145936320Y-100079760D01*
X145936320Y-100079760D02*
X146106500Y-99538740D01*
X146106500Y-99538740D02*
X146797380Y-99520960D01*
X146797380Y-99520960D02*
X147008200Y-100069600D01*
X147008200Y-100069600D02*
X147427300Y-100239780D01*
X147427300Y-100239780D02*
X147978480Y-99970540D01*
X147978480Y-99970540D02*
X148496640Y-100498860D01*
X148496640Y-100498860D02*
X148247720Y-101039880D01*
X148247720Y-101039880D02*
X148417900Y-101519940D01*
X148417900Y-101519940D02*
X148966540Y-101619000D01*
X148966540Y-101619000D02*
X148976700Y-102320040D01*
X148976700Y-102320040D02*
X148417900Y-102520700D01*
X148417900Y-102520700D02*
X148278200Y-102919480D01*
X146136980Y-102899160D02*
X145837260Y-102749300D01*
X145837260Y-102749300D02*
X145636600Y-102551180D01*
X145636600Y-102551180D02*
X145486740Y-102149860D01*
X145486740Y-102149860D02*
X145486740Y-101751080D01*
X145486740Y-101751080D02*
X145636600Y-101400560D01*
X145636600Y-101400560D02*
X146088720Y-101050040D01*
X146088720Y-101050040D02*
X146538300Y-100999240D01*
X146538300Y-100999240D02*
X146937080Y-101100840D01*
X146937080Y-101100840D02*
X147338400Y-101448820D01*
X147338400Y-101448820D02*
X147488260Y-101900940D01*
X147488260Y-101900940D02*
X147437460Y-102398780D01*
X147437460Y-102398780D02*
X147188540Y-102701040D01*
X147188540Y-102701040D02*
X146838020Y-102899160D01*
X146838020Y-102899160D02*
X147188540Y-103899920D01*
X146136980Y-102899160D02*
X145738200Y-103899920D01*
M02*
