G04 #@! TF.FileFunction,Soldermask,Bot*
%FSLAX46Y46*%
G04 Gerber Fmt 4.6, Leading zero omitted, Abs format (unit mm)*
G04 Created by KiCad (PCBNEW 4.0.1-3.201512221402+6198~38~ubuntu15.04.1-stable) date Sun 14 Feb 2016 01:03:01 PM PST*
%MOMM*%
G01*
G04 APERTURE LIST*
%ADD10C,0.100000*%
%ADD11R,0.850000X2.300000*%
%ADD12C,1.871200*%
%ADD13C,3.700000*%
G04 APERTURE END LIST*
D10*
D11*
X149487500Y-111800000D03*
X150757500Y-111800000D03*
X152027500Y-111800000D03*
X153297500Y-111800000D03*
X154567500Y-111800000D03*
X155837500Y-111800000D03*
X157107500Y-111800000D03*
X158377500Y-111800000D03*
X159647500Y-111800000D03*
X160917500Y-111800000D03*
X149487500Y-108200000D03*
X150757500Y-108200000D03*
X152027500Y-108200000D03*
X153297500Y-108200000D03*
X154567500Y-108200000D03*
X155837500Y-108200000D03*
X157107500Y-108200000D03*
X158377500Y-108200000D03*
X159647500Y-108200000D03*
X160917500Y-108200000D03*
X132057500Y-111800000D03*
X133327500Y-111800000D03*
X134597500Y-111800000D03*
X135867500Y-111800000D03*
X137137500Y-111800000D03*
X138407500Y-111800000D03*
X139677500Y-111800000D03*
X140947500Y-111800000D03*
X142217500Y-111800000D03*
X143487500Y-111800000D03*
X132057500Y-108200000D03*
X133327500Y-108200000D03*
X134597500Y-108200000D03*
X135867500Y-108200000D03*
X137137500Y-108200000D03*
X138407500Y-108200000D03*
X139677500Y-108200000D03*
X140947500Y-108200000D03*
X142217500Y-108200000D03*
X143487500Y-108200000D03*
D12*
X149657500Y-97800000D03*
D13*
X151567500Y-104150000D03*
X141407500Y-104150000D03*
D12*
X148387500Y-95260000D03*
X145847500Y-95260000D03*
X143307500Y-95260000D03*
X147117500Y-97800000D03*
X144577500Y-97800000D03*
M02*
