G04 #@! TF.FileFunction,Copper,L2,Bot,Signal*
%FSLAX46Y46*%
G04 Gerber Fmt 4.6, Leading zero omitted, Abs format (unit mm)*
G04 Created by KiCad (PCBNEW 4.0.1-3.201512221402+6198~38~ubuntu15.04.1-stable) date Sun 14 Feb 2016 01:03:01 PM PST*
%MOMM*%
G01*
G04 APERTURE LIST*
%ADD10C,0.100000*%
%ADD11R,0.650000X2.100000*%
%ADD12C,1.471200*%
%ADD13C,3.300000*%
%ADD14C,0.600000*%
%ADD15C,0.250000*%
G04 APERTURE END LIST*
D10*
D11*
X149487500Y-111800000D03*
X150757500Y-111800000D03*
X152027500Y-111800000D03*
X153297500Y-111800000D03*
X154567500Y-111800000D03*
X155837500Y-111800000D03*
X157107500Y-111800000D03*
X158377500Y-111800000D03*
X159647500Y-111800000D03*
X160917500Y-111800000D03*
X149487500Y-108200000D03*
X150757500Y-108200000D03*
X152027500Y-108200000D03*
X153297500Y-108200000D03*
X154567500Y-108200000D03*
X155837500Y-108200000D03*
X157107500Y-108200000D03*
X158377500Y-108200000D03*
X159647500Y-108200000D03*
X160917500Y-108200000D03*
X132057500Y-111800000D03*
X133327500Y-111800000D03*
X134597500Y-111800000D03*
X135867500Y-111800000D03*
X137137500Y-111800000D03*
X138407500Y-111800000D03*
X139677500Y-111800000D03*
X140947500Y-111800000D03*
X142217500Y-111800000D03*
X143487500Y-111800000D03*
X132057500Y-108200000D03*
X133327500Y-108200000D03*
X134597500Y-108200000D03*
X135867500Y-108200000D03*
X137137500Y-108200000D03*
X138407500Y-108200000D03*
X139677500Y-108200000D03*
X140947500Y-108200000D03*
X142217500Y-108200000D03*
X143487500Y-108200000D03*
D12*
X149657500Y-97800000D03*
D13*
X151567500Y-104150000D03*
X141407500Y-104150000D03*
D12*
X148387500Y-95260000D03*
X145847500Y-95260000D03*
X143307500Y-95260000D03*
X147117500Y-97800000D03*
X144577500Y-97800000D03*
D14*
X131250000Y-110000000D03*
X146487500Y-110000000D03*
D15*
X149487500Y-108200000D02*
X149487500Y-107487500D01*
X149487500Y-107487500D02*
X144577500Y-102577500D01*
X144577500Y-102577500D02*
X144577500Y-97800000D01*
X149657500Y-97800000D02*
X148400000Y-99057500D01*
X150600000Y-106500000D02*
X153592500Y-106500000D01*
X148400000Y-99057500D02*
X148400000Y-104300000D01*
X148400000Y-104300000D02*
X150600000Y-106500000D01*
X153592500Y-106500000D02*
X154567500Y-107475000D01*
X154567500Y-107475000D02*
X154567500Y-108200000D01*
X150757500Y-108200000D02*
X150757500Y-107457500D01*
X150757500Y-107457500D02*
X145847500Y-102547500D01*
X145847500Y-102547500D02*
X145847500Y-96300295D01*
X145847500Y-96300295D02*
X145847500Y-95260000D01*
X147112500Y-110000000D02*
X146487500Y-110000000D01*
X149487500Y-111800000D02*
X148912500Y-111800000D01*
X148912500Y-111800000D02*
X147112500Y-110000000D01*
X131250000Y-110000000D02*
X131250000Y-110992500D01*
X131250000Y-110992500D02*
X132057500Y-111800000D01*
G36*
X153679557Y-92515506D02*
X153772435Y-92577565D01*
X153834494Y-92670443D01*
X153870000Y-92848944D01*
X153870000Y-105450000D01*
X153883450Y-105517618D01*
X153883450Y-105586563D01*
X153934643Y-105843927D01*
X153879513Y-105807090D01*
X153592500Y-105750000D01*
X153184853Y-105750000D01*
X153495027Y-105440367D01*
X153842104Y-104604511D01*
X153842894Y-103699460D01*
X153497276Y-102863000D01*
X152857867Y-102222473D01*
X152022011Y-101875396D01*
X151116960Y-101874606D01*
X150280500Y-102220224D01*
X149639973Y-102859633D01*
X149292896Y-103695489D01*
X149292515Y-104131855D01*
X149150000Y-103989340D01*
X149150000Y-99368160D01*
X149365975Y-99152185D01*
X149385673Y-99160364D01*
X149926953Y-99160836D01*
X150427211Y-98954133D01*
X150810288Y-98571724D01*
X151017864Y-98071827D01*
X151018336Y-97530547D01*
X150811633Y-97030289D01*
X150429224Y-96647212D01*
X149929327Y-96439636D01*
X149388047Y-96439164D01*
X148887789Y-96645867D01*
X148504712Y-97028276D01*
X148398625Y-97283762D01*
X148317402Y-97087673D01*
X148078754Y-97021180D01*
X147299934Y-97800000D01*
X147314076Y-97814142D01*
X147131642Y-97996576D01*
X147117500Y-97982434D01*
X147103358Y-97996576D01*
X146920924Y-97814142D01*
X146935066Y-97800000D01*
X146920924Y-97785858D01*
X147103358Y-97603424D01*
X147117500Y-97617566D01*
X147896320Y-96838746D01*
X147829827Y-96600098D01*
X147316422Y-96418839D01*
X146772732Y-96447850D01*
X146597500Y-96520434D01*
X146597500Y-96422277D01*
X146617211Y-96414133D01*
X147000288Y-96031724D01*
X147117532Y-95749370D01*
X147233367Y-96029711D01*
X147615776Y-96412788D01*
X148115673Y-96620364D01*
X148656953Y-96620836D01*
X149157211Y-96414133D01*
X149540288Y-96031724D01*
X149747864Y-95531827D01*
X149748336Y-94990547D01*
X149541633Y-94490289D01*
X149159224Y-94107212D01*
X148659327Y-93899636D01*
X148118047Y-93899164D01*
X147617789Y-94105867D01*
X147234712Y-94488276D01*
X147117468Y-94770630D01*
X147001633Y-94490289D01*
X146619224Y-94107212D01*
X146119327Y-93899636D01*
X145578047Y-93899164D01*
X145077789Y-94105867D01*
X144694712Y-94488276D01*
X144588625Y-94743762D01*
X144507402Y-94547673D01*
X144268754Y-94481180D01*
X143489934Y-95260000D01*
X144268754Y-96038820D01*
X144507402Y-95972327D01*
X144582162Y-95760575D01*
X144693367Y-96029711D01*
X145075776Y-96412788D01*
X145097500Y-96421809D01*
X145097500Y-96542687D01*
X144849327Y-96439636D01*
X144308047Y-96439164D01*
X143807789Y-96645867D01*
X143424712Y-97028276D01*
X143217136Y-97528173D01*
X143216664Y-98069453D01*
X143423367Y-98569711D01*
X143805776Y-98952788D01*
X143827500Y-98961809D01*
X143827500Y-102577500D01*
X143884590Y-102864513D01*
X144047170Y-103107830D01*
X148525256Y-107585916D01*
X148525256Y-109250000D01*
X148568837Y-109481611D01*
X148705719Y-109694332D01*
X148914576Y-109837038D01*
X149162500Y-109887244D01*
X149812500Y-109887244D01*
X150044111Y-109843663D01*
X150121443Y-109793901D01*
X150184576Y-109837038D01*
X150432500Y-109887244D01*
X151082500Y-109887244D01*
X151314111Y-109843663D01*
X151391443Y-109793901D01*
X151454576Y-109837038D01*
X151702500Y-109887244D01*
X152352500Y-109887244D01*
X152584111Y-109843663D01*
X152661443Y-109793901D01*
X152724576Y-109837038D01*
X152972500Y-109887244D01*
X153622500Y-109887244D01*
X153854111Y-109843663D01*
X153931443Y-109793901D01*
X153994576Y-109837038D01*
X154242500Y-109887244D01*
X154892500Y-109887244D01*
X155124111Y-109843663D01*
X155201443Y-109793901D01*
X155264576Y-109837038D01*
X155512500Y-109887244D01*
X156162500Y-109887244D01*
X156394111Y-109843663D01*
X156471443Y-109793901D01*
X156534576Y-109837038D01*
X156782500Y-109887244D01*
X157432500Y-109887244D01*
X157664111Y-109843663D01*
X157741443Y-109793901D01*
X157804576Y-109837038D01*
X158052500Y-109887244D01*
X158702500Y-109887244D01*
X158934111Y-109843663D01*
X159011443Y-109793901D01*
X159074576Y-109837038D01*
X159322500Y-109887244D01*
X159972500Y-109887244D01*
X160204111Y-109843663D01*
X160281443Y-109793901D01*
X160344576Y-109837038D01*
X160592500Y-109887244D01*
X161242500Y-109887244D01*
X161474111Y-109843663D01*
X161686832Y-109706781D01*
X161780000Y-109570425D01*
X161780000Y-110393532D01*
X161779131Y-110391434D01*
X161601065Y-110213368D01*
X161368411Y-110117000D01*
X161204750Y-110117000D01*
X161046500Y-110275250D01*
X161046500Y-111671000D01*
X161066500Y-111671000D01*
X161066500Y-111929000D01*
X161046500Y-111929000D01*
X161046500Y-111949000D01*
X160788500Y-111949000D01*
X160788500Y-111929000D01*
X159776500Y-111929000D01*
X159776500Y-111949000D01*
X159518500Y-111949000D01*
X159518500Y-111929000D01*
X158506500Y-111929000D01*
X158506500Y-111949000D01*
X158248500Y-111949000D01*
X158248500Y-111929000D01*
X158228500Y-111929000D01*
X158228500Y-111671000D01*
X158248500Y-111671000D01*
X158248500Y-110275250D01*
X158506500Y-110275250D01*
X158506500Y-111671000D01*
X159518500Y-111671000D01*
X159518500Y-110275250D01*
X159776500Y-110275250D01*
X159776500Y-111671000D01*
X160788500Y-111671000D01*
X160788500Y-110275250D01*
X160630250Y-110117000D01*
X160466589Y-110117000D01*
X160282500Y-110193252D01*
X160098411Y-110117000D01*
X159934750Y-110117000D01*
X159776500Y-110275250D01*
X159518500Y-110275250D01*
X159360250Y-110117000D01*
X159196589Y-110117000D01*
X159012500Y-110193252D01*
X158828411Y-110117000D01*
X158664750Y-110117000D01*
X158506500Y-110275250D01*
X158248500Y-110275250D01*
X158090250Y-110117000D01*
X157926589Y-110117000D01*
X157731452Y-110197828D01*
X157680424Y-110162962D01*
X157432500Y-110112756D01*
X156782500Y-110112756D01*
X156550889Y-110156337D01*
X156473557Y-110206099D01*
X156410424Y-110162962D01*
X156162500Y-110112756D01*
X155512500Y-110112756D01*
X155280889Y-110156337D01*
X155203557Y-110206099D01*
X155140424Y-110162962D01*
X154892500Y-110112756D01*
X154242500Y-110112756D01*
X154010889Y-110156337D01*
X153933557Y-110206099D01*
X153870424Y-110162962D01*
X153622500Y-110112756D01*
X152972500Y-110112756D01*
X152740889Y-110156337D01*
X152675289Y-110198549D01*
X152478411Y-110117000D01*
X152314750Y-110117000D01*
X152156500Y-110275250D01*
X152156500Y-111671000D01*
X152176500Y-111671000D01*
X152176500Y-111929000D01*
X152156500Y-111929000D01*
X152156500Y-111949000D01*
X151898500Y-111949000D01*
X151898500Y-111929000D01*
X150886500Y-111929000D01*
X150886500Y-111949000D01*
X150628500Y-111949000D01*
X150628500Y-111929000D01*
X150608500Y-111929000D01*
X150608500Y-111671000D01*
X150628500Y-111671000D01*
X150628500Y-110275250D01*
X150886500Y-110275250D01*
X150886500Y-111671000D01*
X151898500Y-111671000D01*
X151898500Y-110275250D01*
X151740250Y-110117000D01*
X151576589Y-110117000D01*
X151392500Y-110193252D01*
X151208411Y-110117000D01*
X151044750Y-110117000D01*
X150886500Y-110275250D01*
X150628500Y-110275250D01*
X150470250Y-110117000D01*
X150306589Y-110117000D01*
X150111452Y-110197828D01*
X150060424Y-110162962D01*
X149812500Y-110112756D01*
X149162500Y-110112756D01*
X148930889Y-110156337D01*
X148718168Y-110293219D01*
X148615962Y-110442802D01*
X147642830Y-109469670D01*
X147399513Y-109307090D01*
X147112500Y-109250000D01*
X147045816Y-109250000D01*
X147012155Y-109216280D01*
X146672301Y-109075161D01*
X146304313Y-109074840D01*
X145964214Y-109215366D01*
X145703780Y-109475345D01*
X145562661Y-109815199D01*
X145562340Y-110183187D01*
X145702866Y-110523286D01*
X145962845Y-110783720D01*
X146302699Y-110924839D01*
X146670687Y-110925160D01*
X146887440Y-110835600D01*
X147381840Y-111330000D01*
X145315000Y-111330000D01*
X145247382Y-111343450D01*
X145178438Y-111343450D01*
X145006230Y-111377704D01*
X145006228Y-111377705D01*
X145006226Y-111377705D01*
X144889027Y-111426250D01*
X144753894Y-111482224D01*
X144753893Y-111482225D01*
X144753891Y-111482226D01*
X144607901Y-111579774D01*
X144511338Y-111676338D01*
X144449744Y-111737931D01*
X144449744Y-110750000D01*
X144406163Y-110518389D01*
X144269281Y-110305668D01*
X144060424Y-110162962D01*
X143812500Y-110112756D01*
X143162500Y-110112756D01*
X142930889Y-110156337D01*
X142853557Y-110206099D01*
X142790424Y-110162962D01*
X142542500Y-110112756D01*
X141892500Y-110112756D01*
X141660889Y-110156337D01*
X141595289Y-110198549D01*
X141398411Y-110117000D01*
X141234750Y-110117000D01*
X141076500Y-110275250D01*
X141076500Y-111671000D01*
X141096500Y-111671000D01*
X141096500Y-111929000D01*
X141076500Y-111929000D01*
X141076500Y-111949000D01*
X140818500Y-111949000D01*
X140818500Y-111929000D01*
X139806500Y-111929000D01*
X139806500Y-111949000D01*
X139548500Y-111949000D01*
X139548500Y-111929000D01*
X138536500Y-111929000D01*
X138536500Y-111949000D01*
X138278500Y-111949000D01*
X138278500Y-111929000D01*
X137266500Y-111929000D01*
X137266500Y-111949000D01*
X137008500Y-111949000D01*
X137008500Y-111929000D01*
X135996500Y-111929000D01*
X135996500Y-111949000D01*
X135738500Y-111949000D01*
X135738500Y-111929000D01*
X135718500Y-111929000D01*
X135718500Y-111671000D01*
X135738500Y-111671000D01*
X135738500Y-110275250D01*
X135996500Y-110275250D01*
X135996500Y-111671000D01*
X137008500Y-111671000D01*
X137008500Y-110275250D01*
X137266500Y-110275250D01*
X137266500Y-111671000D01*
X138278500Y-111671000D01*
X138278500Y-110275250D01*
X138536500Y-110275250D01*
X138536500Y-111671000D01*
X139548500Y-111671000D01*
X139548500Y-110275250D01*
X139806500Y-110275250D01*
X139806500Y-111671000D01*
X140818500Y-111671000D01*
X140818500Y-110275250D01*
X140660250Y-110117000D01*
X140496589Y-110117000D01*
X140312500Y-110193252D01*
X140128411Y-110117000D01*
X139964750Y-110117000D01*
X139806500Y-110275250D01*
X139548500Y-110275250D01*
X139390250Y-110117000D01*
X139226589Y-110117000D01*
X139042500Y-110193252D01*
X138858411Y-110117000D01*
X138694750Y-110117000D01*
X138536500Y-110275250D01*
X138278500Y-110275250D01*
X138120250Y-110117000D01*
X137956589Y-110117000D01*
X137772500Y-110193252D01*
X137588411Y-110117000D01*
X137424750Y-110117000D01*
X137266500Y-110275250D01*
X137008500Y-110275250D01*
X136850250Y-110117000D01*
X136686589Y-110117000D01*
X136502500Y-110193252D01*
X136318411Y-110117000D01*
X136154750Y-110117000D01*
X135996500Y-110275250D01*
X135738500Y-110275250D01*
X135580250Y-110117000D01*
X135416589Y-110117000D01*
X135221452Y-110197828D01*
X135170424Y-110162962D01*
X134922500Y-110112756D01*
X134272500Y-110112756D01*
X134040889Y-110156337D01*
X133963557Y-110206099D01*
X133900424Y-110162962D01*
X133652500Y-110112756D01*
X133002500Y-110112756D01*
X132770889Y-110156337D01*
X132693557Y-110206099D01*
X132630424Y-110162962D01*
X132382500Y-110112756D01*
X132174902Y-110112756D01*
X132175099Y-109887244D01*
X132382500Y-109887244D01*
X132614111Y-109843663D01*
X132691443Y-109793901D01*
X132754576Y-109837038D01*
X133002500Y-109887244D01*
X133652500Y-109887244D01*
X133884111Y-109843663D01*
X133961443Y-109793901D01*
X134024576Y-109837038D01*
X134272500Y-109887244D01*
X134922500Y-109887244D01*
X135154111Y-109843663D01*
X135231443Y-109793901D01*
X135294576Y-109837038D01*
X135542500Y-109887244D01*
X136192500Y-109887244D01*
X136424111Y-109843663D01*
X136501443Y-109793901D01*
X136564576Y-109837038D01*
X136812500Y-109887244D01*
X137462500Y-109887244D01*
X137694111Y-109843663D01*
X137771443Y-109793901D01*
X137834576Y-109837038D01*
X138082500Y-109887244D01*
X138732500Y-109887244D01*
X138964111Y-109843663D01*
X139041443Y-109793901D01*
X139104576Y-109837038D01*
X139352500Y-109887244D01*
X140002500Y-109887244D01*
X140234111Y-109843663D01*
X140311443Y-109793901D01*
X140374576Y-109837038D01*
X140622500Y-109887244D01*
X141272500Y-109887244D01*
X141504111Y-109843663D01*
X141581443Y-109793901D01*
X141644576Y-109837038D01*
X141892500Y-109887244D01*
X142542500Y-109887244D01*
X142774111Y-109843663D01*
X142851443Y-109793901D01*
X142914576Y-109837038D01*
X143162500Y-109887244D01*
X143812500Y-109887244D01*
X144044111Y-109843663D01*
X144256832Y-109706781D01*
X144399538Y-109497924D01*
X144449744Y-109250000D01*
X144449744Y-107150000D01*
X144406163Y-106918389D01*
X144269281Y-106705668D01*
X144060424Y-106562962D01*
X143812500Y-106512756D01*
X143162500Y-106512756D01*
X142930889Y-106556337D01*
X142853557Y-106606099D01*
X142790424Y-106562962D01*
X142542500Y-106512756D01*
X141892500Y-106512756D01*
X141660889Y-106556337D01*
X141583557Y-106606099D01*
X141520424Y-106562962D01*
X141272500Y-106512756D01*
X140622500Y-106512756D01*
X140390889Y-106556337D01*
X140313557Y-106606099D01*
X140250424Y-106562962D01*
X140002500Y-106512756D01*
X139352500Y-106512756D01*
X139120889Y-106556337D01*
X139043557Y-106606099D01*
X138980424Y-106562962D01*
X138732500Y-106512756D01*
X138701353Y-106512756D01*
X138895909Y-106221582D01*
X138895910Y-106221581D01*
X138962383Y-106061100D01*
X139000430Y-105969247D01*
X139000430Y-105969245D01*
X139076550Y-105586563D01*
X139076550Y-105517618D01*
X139090000Y-105450000D01*
X139090000Y-104600540D01*
X139132106Y-104600540D01*
X139477724Y-105437000D01*
X140117133Y-106077527D01*
X140952989Y-106424604D01*
X141858040Y-106425394D01*
X142694500Y-106079776D01*
X143335027Y-105440367D01*
X143682104Y-104604511D01*
X143682894Y-103699460D01*
X143337276Y-102863000D01*
X142697867Y-102222473D01*
X141862011Y-101875396D01*
X140956960Y-101874606D01*
X140120500Y-102220224D01*
X139479973Y-102859633D01*
X139132896Y-103695489D01*
X139132106Y-104600540D01*
X139090000Y-104600540D01*
X139090000Y-96221254D01*
X142528680Y-96221254D01*
X142595173Y-96459902D01*
X143108578Y-96641161D01*
X143652268Y-96612150D01*
X144019827Y-96459902D01*
X144086320Y-96221254D01*
X143307500Y-95442434D01*
X142528680Y-96221254D01*
X139090000Y-96221254D01*
X139090000Y-95061078D01*
X141926339Y-95061078D01*
X141955350Y-95604768D01*
X142107598Y-95972327D01*
X142346246Y-96038820D01*
X143125066Y-95260000D01*
X142346246Y-94481180D01*
X142107598Y-94547673D01*
X141926339Y-95061078D01*
X139090000Y-95061078D01*
X139090000Y-94298746D01*
X142528680Y-94298746D01*
X143307500Y-95077566D01*
X144086320Y-94298746D01*
X144019827Y-94060098D01*
X143506422Y-93878839D01*
X142962732Y-93907850D01*
X142595173Y-94060098D01*
X142528680Y-94298746D01*
X139090000Y-94298746D01*
X139090000Y-92848945D01*
X139125506Y-92670443D01*
X139187565Y-92577565D01*
X139280443Y-92515506D01*
X139458944Y-92480000D01*
X153501055Y-92480000D01*
X153679557Y-92515506D01*
X153679557Y-92515506D01*
G37*
X153679557Y-92515506D02*
X153772435Y-92577565D01*
X153834494Y-92670443D01*
X153870000Y-92848944D01*
X153870000Y-105450000D01*
X153883450Y-105517618D01*
X153883450Y-105586563D01*
X153934643Y-105843927D01*
X153879513Y-105807090D01*
X153592500Y-105750000D01*
X153184853Y-105750000D01*
X153495027Y-105440367D01*
X153842104Y-104604511D01*
X153842894Y-103699460D01*
X153497276Y-102863000D01*
X152857867Y-102222473D01*
X152022011Y-101875396D01*
X151116960Y-101874606D01*
X150280500Y-102220224D01*
X149639973Y-102859633D01*
X149292896Y-103695489D01*
X149292515Y-104131855D01*
X149150000Y-103989340D01*
X149150000Y-99368160D01*
X149365975Y-99152185D01*
X149385673Y-99160364D01*
X149926953Y-99160836D01*
X150427211Y-98954133D01*
X150810288Y-98571724D01*
X151017864Y-98071827D01*
X151018336Y-97530547D01*
X150811633Y-97030289D01*
X150429224Y-96647212D01*
X149929327Y-96439636D01*
X149388047Y-96439164D01*
X148887789Y-96645867D01*
X148504712Y-97028276D01*
X148398625Y-97283762D01*
X148317402Y-97087673D01*
X148078754Y-97021180D01*
X147299934Y-97800000D01*
X147314076Y-97814142D01*
X147131642Y-97996576D01*
X147117500Y-97982434D01*
X147103358Y-97996576D01*
X146920924Y-97814142D01*
X146935066Y-97800000D01*
X146920924Y-97785858D01*
X147103358Y-97603424D01*
X147117500Y-97617566D01*
X147896320Y-96838746D01*
X147829827Y-96600098D01*
X147316422Y-96418839D01*
X146772732Y-96447850D01*
X146597500Y-96520434D01*
X146597500Y-96422277D01*
X146617211Y-96414133D01*
X147000288Y-96031724D01*
X147117532Y-95749370D01*
X147233367Y-96029711D01*
X147615776Y-96412788D01*
X148115673Y-96620364D01*
X148656953Y-96620836D01*
X149157211Y-96414133D01*
X149540288Y-96031724D01*
X149747864Y-95531827D01*
X149748336Y-94990547D01*
X149541633Y-94490289D01*
X149159224Y-94107212D01*
X148659327Y-93899636D01*
X148118047Y-93899164D01*
X147617789Y-94105867D01*
X147234712Y-94488276D01*
X147117468Y-94770630D01*
X147001633Y-94490289D01*
X146619224Y-94107212D01*
X146119327Y-93899636D01*
X145578047Y-93899164D01*
X145077789Y-94105867D01*
X144694712Y-94488276D01*
X144588625Y-94743762D01*
X144507402Y-94547673D01*
X144268754Y-94481180D01*
X143489934Y-95260000D01*
X144268754Y-96038820D01*
X144507402Y-95972327D01*
X144582162Y-95760575D01*
X144693367Y-96029711D01*
X145075776Y-96412788D01*
X145097500Y-96421809D01*
X145097500Y-96542687D01*
X144849327Y-96439636D01*
X144308047Y-96439164D01*
X143807789Y-96645867D01*
X143424712Y-97028276D01*
X143217136Y-97528173D01*
X143216664Y-98069453D01*
X143423367Y-98569711D01*
X143805776Y-98952788D01*
X143827500Y-98961809D01*
X143827500Y-102577500D01*
X143884590Y-102864513D01*
X144047170Y-103107830D01*
X148525256Y-107585916D01*
X148525256Y-109250000D01*
X148568837Y-109481611D01*
X148705719Y-109694332D01*
X148914576Y-109837038D01*
X149162500Y-109887244D01*
X149812500Y-109887244D01*
X150044111Y-109843663D01*
X150121443Y-109793901D01*
X150184576Y-109837038D01*
X150432500Y-109887244D01*
X151082500Y-109887244D01*
X151314111Y-109843663D01*
X151391443Y-109793901D01*
X151454576Y-109837038D01*
X151702500Y-109887244D01*
X152352500Y-109887244D01*
X152584111Y-109843663D01*
X152661443Y-109793901D01*
X152724576Y-109837038D01*
X152972500Y-109887244D01*
X153622500Y-109887244D01*
X153854111Y-109843663D01*
X153931443Y-109793901D01*
X153994576Y-109837038D01*
X154242500Y-109887244D01*
X154892500Y-109887244D01*
X155124111Y-109843663D01*
X155201443Y-109793901D01*
X155264576Y-109837038D01*
X155512500Y-109887244D01*
X156162500Y-109887244D01*
X156394111Y-109843663D01*
X156471443Y-109793901D01*
X156534576Y-109837038D01*
X156782500Y-109887244D01*
X157432500Y-109887244D01*
X157664111Y-109843663D01*
X157741443Y-109793901D01*
X157804576Y-109837038D01*
X158052500Y-109887244D01*
X158702500Y-109887244D01*
X158934111Y-109843663D01*
X159011443Y-109793901D01*
X159074576Y-109837038D01*
X159322500Y-109887244D01*
X159972500Y-109887244D01*
X160204111Y-109843663D01*
X160281443Y-109793901D01*
X160344576Y-109837038D01*
X160592500Y-109887244D01*
X161242500Y-109887244D01*
X161474111Y-109843663D01*
X161686832Y-109706781D01*
X161780000Y-109570425D01*
X161780000Y-110393532D01*
X161779131Y-110391434D01*
X161601065Y-110213368D01*
X161368411Y-110117000D01*
X161204750Y-110117000D01*
X161046500Y-110275250D01*
X161046500Y-111671000D01*
X161066500Y-111671000D01*
X161066500Y-111929000D01*
X161046500Y-111929000D01*
X161046500Y-111949000D01*
X160788500Y-111949000D01*
X160788500Y-111929000D01*
X159776500Y-111929000D01*
X159776500Y-111949000D01*
X159518500Y-111949000D01*
X159518500Y-111929000D01*
X158506500Y-111929000D01*
X158506500Y-111949000D01*
X158248500Y-111949000D01*
X158248500Y-111929000D01*
X158228500Y-111929000D01*
X158228500Y-111671000D01*
X158248500Y-111671000D01*
X158248500Y-110275250D01*
X158506500Y-110275250D01*
X158506500Y-111671000D01*
X159518500Y-111671000D01*
X159518500Y-110275250D01*
X159776500Y-110275250D01*
X159776500Y-111671000D01*
X160788500Y-111671000D01*
X160788500Y-110275250D01*
X160630250Y-110117000D01*
X160466589Y-110117000D01*
X160282500Y-110193252D01*
X160098411Y-110117000D01*
X159934750Y-110117000D01*
X159776500Y-110275250D01*
X159518500Y-110275250D01*
X159360250Y-110117000D01*
X159196589Y-110117000D01*
X159012500Y-110193252D01*
X158828411Y-110117000D01*
X158664750Y-110117000D01*
X158506500Y-110275250D01*
X158248500Y-110275250D01*
X158090250Y-110117000D01*
X157926589Y-110117000D01*
X157731452Y-110197828D01*
X157680424Y-110162962D01*
X157432500Y-110112756D01*
X156782500Y-110112756D01*
X156550889Y-110156337D01*
X156473557Y-110206099D01*
X156410424Y-110162962D01*
X156162500Y-110112756D01*
X155512500Y-110112756D01*
X155280889Y-110156337D01*
X155203557Y-110206099D01*
X155140424Y-110162962D01*
X154892500Y-110112756D01*
X154242500Y-110112756D01*
X154010889Y-110156337D01*
X153933557Y-110206099D01*
X153870424Y-110162962D01*
X153622500Y-110112756D01*
X152972500Y-110112756D01*
X152740889Y-110156337D01*
X152675289Y-110198549D01*
X152478411Y-110117000D01*
X152314750Y-110117000D01*
X152156500Y-110275250D01*
X152156500Y-111671000D01*
X152176500Y-111671000D01*
X152176500Y-111929000D01*
X152156500Y-111929000D01*
X152156500Y-111949000D01*
X151898500Y-111949000D01*
X151898500Y-111929000D01*
X150886500Y-111929000D01*
X150886500Y-111949000D01*
X150628500Y-111949000D01*
X150628500Y-111929000D01*
X150608500Y-111929000D01*
X150608500Y-111671000D01*
X150628500Y-111671000D01*
X150628500Y-110275250D01*
X150886500Y-110275250D01*
X150886500Y-111671000D01*
X151898500Y-111671000D01*
X151898500Y-110275250D01*
X151740250Y-110117000D01*
X151576589Y-110117000D01*
X151392500Y-110193252D01*
X151208411Y-110117000D01*
X151044750Y-110117000D01*
X150886500Y-110275250D01*
X150628500Y-110275250D01*
X150470250Y-110117000D01*
X150306589Y-110117000D01*
X150111452Y-110197828D01*
X150060424Y-110162962D01*
X149812500Y-110112756D01*
X149162500Y-110112756D01*
X148930889Y-110156337D01*
X148718168Y-110293219D01*
X148615962Y-110442802D01*
X147642830Y-109469670D01*
X147399513Y-109307090D01*
X147112500Y-109250000D01*
X147045816Y-109250000D01*
X147012155Y-109216280D01*
X146672301Y-109075161D01*
X146304313Y-109074840D01*
X145964214Y-109215366D01*
X145703780Y-109475345D01*
X145562661Y-109815199D01*
X145562340Y-110183187D01*
X145702866Y-110523286D01*
X145962845Y-110783720D01*
X146302699Y-110924839D01*
X146670687Y-110925160D01*
X146887440Y-110835600D01*
X147381840Y-111330000D01*
X145315000Y-111330000D01*
X145247382Y-111343450D01*
X145178438Y-111343450D01*
X145006230Y-111377704D01*
X145006228Y-111377705D01*
X145006226Y-111377705D01*
X144889027Y-111426250D01*
X144753894Y-111482224D01*
X144753893Y-111482225D01*
X144753891Y-111482226D01*
X144607901Y-111579774D01*
X144511338Y-111676338D01*
X144449744Y-111737931D01*
X144449744Y-110750000D01*
X144406163Y-110518389D01*
X144269281Y-110305668D01*
X144060424Y-110162962D01*
X143812500Y-110112756D01*
X143162500Y-110112756D01*
X142930889Y-110156337D01*
X142853557Y-110206099D01*
X142790424Y-110162962D01*
X142542500Y-110112756D01*
X141892500Y-110112756D01*
X141660889Y-110156337D01*
X141595289Y-110198549D01*
X141398411Y-110117000D01*
X141234750Y-110117000D01*
X141076500Y-110275250D01*
X141076500Y-111671000D01*
X141096500Y-111671000D01*
X141096500Y-111929000D01*
X141076500Y-111929000D01*
X141076500Y-111949000D01*
X140818500Y-111949000D01*
X140818500Y-111929000D01*
X139806500Y-111929000D01*
X139806500Y-111949000D01*
X139548500Y-111949000D01*
X139548500Y-111929000D01*
X138536500Y-111929000D01*
X138536500Y-111949000D01*
X138278500Y-111949000D01*
X138278500Y-111929000D01*
X137266500Y-111929000D01*
X137266500Y-111949000D01*
X137008500Y-111949000D01*
X137008500Y-111929000D01*
X135996500Y-111929000D01*
X135996500Y-111949000D01*
X135738500Y-111949000D01*
X135738500Y-111929000D01*
X135718500Y-111929000D01*
X135718500Y-111671000D01*
X135738500Y-111671000D01*
X135738500Y-110275250D01*
X135996500Y-110275250D01*
X135996500Y-111671000D01*
X137008500Y-111671000D01*
X137008500Y-110275250D01*
X137266500Y-110275250D01*
X137266500Y-111671000D01*
X138278500Y-111671000D01*
X138278500Y-110275250D01*
X138536500Y-110275250D01*
X138536500Y-111671000D01*
X139548500Y-111671000D01*
X139548500Y-110275250D01*
X139806500Y-110275250D01*
X139806500Y-111671000D01*
X140818500Y-111671000D01*
X140818500Y-110275250D01*
X140660250Y-110117000D01*
X140496589Y-110117000D01*
X140312500Y-110193252D01*
X140128411Y-110117000D01*
X139964750Y-110117000D01*
X139806500Y-110275250D01*
X139548500Y-110275250D01*
X139390250Y-110117000D01*
X139226589Y-110117000D01*
X139042500Y-110193252D01*
X138858411Y-110117000D01*
X138694750Y-110117000D01*
X138536500Y-110275250D01*
X138278500Y-110275250D01*
X138120250Y-110117000D01*
X137956589Y-110117000D01*
X137772500Y-110193252D01*
X137588411Y-110117000D01*
X137424750Y-110117000D01*
X137266500Y-110275250D01*
X137008500Y-110275250D01*
X136850250Y-110117000D01*
X136686589Y-110117000D01*
X136502500Y-110193252D01*
X136318411Y-110117000D01*
X136154750Y-110117000D01*
X135996500Y-110275250D01*
X135738500Y-110275250D01*
X135580250Y-110117000D01*
X135416589Y-110117000D01*
X135221452Y-110197828D01*
X135170424Y-110162962D01*
X134922500Y-110112756D01*
X134272500Y-110112756D01*
X134040889Y-110156337D01*
X133963557Y-110206099D01*
X133900424Y-110162962D01*
X133652500Y-110112756D01*
X133002500Y-110112756D01*
X132770889Y-110156337D01*
X132693557Y-110206099D01*
X132630424Y-110162962D01*
X132382500Y-110112756D01*
X132174902Y-110112756D01*
X132175099Y-109887244D01*
X132382500Y-109887244D01*
X132614111Y-109843663D01*
X132691443Y-109793901D01*
X132754576Y-109837038D01*
X133002500Y-109887244D01*
X133652500Y-109887244D01*
X133884111Y-109843663D01*
X133961443Y-109793901D01*
X134024576Y-109837038D01*
X134272500Y-109887244D01*
X134922500Y-109887244D01*
X135154111Y-109843663D01*
X135231443Y-109793901D01*
X135294576Y-109837038D01*
X135542500Y-109887244D01*
X136192500Y-109887244D01*
X136424111Y-109843663D01*
X136501443Y-109793901D01*
X136564576Y-109837038D01*
X136812500Y-109887244D01*
X137462500Y-109887244D01*
X137694111Y-109843663D01*
X137771443Y-109793901D01*
X137834576Y-109837038D01*
X138082500Y-109887244D01*
X138732500Y-109887244D01*
X138964111Y-109843663D01*
X139041443Y-109793901D01*
X139104576Y-109837038D01*
X139352500Y-109887244D01*
X140002500Y-109887244D01*
X140234111Y-109843663D01*
X140311443Y-109793901D01*
X140374576Y-109837038D01*
X140622500Y-109887244D01*
X141272500Y-109887244D01*
X141504111Y-109843663D01*
X141581443Y-109793901D01*
X141644576Y-109837038D01*
X141892500Y-109887244D01*
X142542500Y-109887244D01*
X142774111Y-109843663D01*
X142851443Y-109793901D01*
X142914576Y-109837038D01*
X143162500Y-109887244D01*
X143812500Y-109887244D01*
X144044111Y-109843663D01*
X144256832Y-109706781D01*
X144399538Y-109497924D01*
X144449744Y-109250000D01*
X144449744Y-107150000D01*
X144406163Y-106918389D01*
X144269281Y-106705668D01*
X144060424Y-106562962D01*
X143812500Y-106512756D01*
X143162500Y-106512756D01*
X142930889Y-106556337D01*
X142853557Y-106606099D01*
X142790424Y-106562962D01*
X142542500Y-106512756D01*
X141892500Y-106512756D01*
X141660889Y-106556337D01*
X141583557Y-106606099D01*
X141520424Y-106562962D01*
X141272500Y-106512756D01*
X140622500Y-106512756D01*
X140390889Y-106556337D01*
X140313557Y-106606099D01*
X140250424Y-106562962D01*
X140002500Y-106512756D01*
X139352500Y-106512756D01*
X139120889Y-106556337D01*
X139043557Y-106606099D01*
X138980424Y-106562962D01*
X138732500Y-106512756D01*
X138701353Y-106512756D01*
X138895909Y-106221582D01*
X138895910Y-106221581D01*
X138962383Y-106061100D01*
X139000430Y-105969247D01*
X139000430Y-105969245D01*
X139076550Y-105586563D01*
X139076550Y-105517618D01*
X139090000Y-105450000D01*
X139090000Y-104600540D01*
X139132106Y-104600540D01*
X139477724Y-105437000D01*
X140117133Y-106077527D01*
X140952989Y-106424604D01*
X141858040Y-106425394D01*
X142694500Y-106079776D01*
X143335027Y-105440367D01*
X143682104Y-104604511D01*
X143682894Y-103699460D01*
X143337276Y-102863000D01*
X142697867Y-102222473D01*
X141862011Y-101875396D01*
X140956960Y-101874606D01*
X140120500Y-102220224D01*
X139479973Y-102859633D01*
X139132896Y-103695489D01*
X139132106Y-104600540D01*
X139090000Y-104600540D01*
X139090000Y-96221254D01*
X142528680Y-96221254D01*
X142595173Y-96459902D01*
X143108578Y-96641161D01*
X143652268Y-96612150D01*
X144019827Y-96459902D01*
X144086320Y-96221254D01*
X143307500Y-95442434D01*
X142528680Y-96221254D01*
X139090000Y-96221254D01*
X139090000Y-95061078D01*
X141926339Y-95061078D01*
X141955350Y-95604768D01*
X142107598Y-95972327D01*
X142346246Y-96038820D01*
X143125066Y-95260000D01*
X142346246Y-94481180D01*
X142107598Y-94547673D01*
X141926339Y-95061078D01*
X139090000Y-95061078D01*
X139090000Y-94298746D01*
X142528680Y-94298746D01*
X143307500Y-95077566D01*
X144086320Y-94298746D01*
X144019827Y-94060098D01*
X143506422Y-93878839D01*
X142962732Y-93907850D01*
X142595173Y-94060098D01*
X142528680Y-94298746D01*
X139090000Y-94298746D01*
X139090000Y-92848945D01*
X139125506Y-92670443D01*
X139187565Y-92577565D01*
X139280443Y-92515506D01*
X139458944Y-92480000D01*
X153501055Y-92480000D01*
X153679557Y-92515506D01*
M02*
