G04 #@! TF.FileFunction,Profile,NP*
%FSLAX46Y46*%
G04 Gerber Fmt 4.6, Leading zero omitted, Abs format (unit mm)*
G04 Created by KiCad (PCBNEW 4.0.1-3.201512221402+6198~38~ubuntu15.04.1-stable) date Sun 14 Feb 2016 01:03:01 PM PST*
%MOMM*%
G01*
G04 APERTURE LIST*
%ADD10C,0.100000*%
%ADD11C,0.150000*%
G04 APERTURE END LIST*
D10*
D11*
X148115000Y-113100000D02*
G75*
G03X148565000Y-113550000I450000J0D01*
G01*
X148115000Y-112480000D02*
G75*
G03X147665000Y-112030000I-450000J0D01*
G01*
X145315000Y-112030000D02*
G75*
G03X144865000Y-112480000I0J-450000D01*
G01*
X144415000Y-113550000D02*
G75*
G03X144865000Y-113100000I0J450000D01*
G01*
X148115000Y-112480000D02*
X148115000Y-113100000D01*
X144865000Y-112480000D02*
X144865000Y-113100000D01*
X145315000Y-112030000D02*
X147665000Y-112030000D01*
X144415000Y-113550000D02*
X131500000Y-113550000D01*
X154570000Y-92780000D02*
G75*
G03X153570000Y-91780000I-1000000J0D01*
G01*
X139390000Y-91780000D02*
G75*
G03X138390000Y-92780000I0J-1000000D01*
G01*
X137390000Y-106450000D02*
G75*
G03X138390000Y-105450000I0J1000000D01*
G01*
X131500000Y-106450000D02*
G75*
G03X130500000Y-107450000I0J-1000000D01*
G01*
X130500000Y-112550000D02*
G75*
G03X131500000Y-113550000I1000000J0D01*
G01*
X161480000Y-113550000D02*
G75*
G03X162480000Y-112550000I0J1000000D01*
G01*
X162480000Y-107450000D02*
G75*
G03X161480000Y-106450000I-1000000J0D01*
G01*
X154570000Y-105450000D02*
G75*
G03X155570000Y-106450000I1000000J0D01*
G01*
X162480000Y-107450000D02*
X162480000Y-112550000D01*
X155570000Y-106450000D02*
X161480000Y-106450000D01*
X154570000Y-92790000D02*
X154570000Y-105450000D01*
X139390000Y-91780000D02*
X153570000Y-91780000D01*
X138390000Y-105450000D02*
X138390000Y-92780000D01*
X131500000Y-106450000D02*
X137390000Y-106450000D01*
X130500000Y-112550000D02*
X130500000Y-107450000D01*
X161480000Y-113550000D02*
X148565000Y-113550000D01*
M02*
